<svg width="20.021336" height="17.178589" viewBox="0 0 20.0213 17.1786" fill="none" xmlns="http://www.w3.org/2000/svg" xmlns:xlink="http://www.w3.org/1999/xlink">
	<desc>
			Created with Pixso.
	</desc>
	<defs/>
	<path id="Vector" d="M11.61 0.41C11.34 0.68 11.19 1.05 11.19 1.42C11.19 1.8 11.34 2.17 11.61 2.44L16.32 7.15L1.43 7.16C1.05 7.16 0.68 7.31 0.41 7.57C0.15 7.84 0 8.21 0 8.59C0 8.96 0.15 9.33 0.41 9.6C0.68 9.86 1.05 10.02 1.43 10.02L16.32 10.01L11.61 14.71C11.47 14.85 11.36 15 11.29 15.18C11.21 15.35 11.17 15.54 11.17 15.73C11.17 15.92 11.21 16.11 11.28 16.29C11.35 16.46 11.46 16.62 11.59 16.75C11.73 16.89 11.89 17 12.06 17.07C12.24 17.14 12.43 17.18 12.61 17.17C12.8 17.17 12.99 17.13 13.17 17.06C13.34 16.98 13.5 16.87 13.63 16.74L18.76 11.61C19.16 11.21 19.47 10.74 19.69 10.22C19.91 9.7 20.02 9.14 20.02 8.58C20.02 8.01 19.91 7.45 19.69 6.93C19.47 6.41 19.16 5.94 18.76 5.54L13.63 0.41C13.36 0.15 13 0 12.62 0C12.24 0 11.88 0.15 11.61 0.41Z" fill="#FFFFFF" fill-opacity="1.000000" fill-rule="nonzero"/>
</svg>
