<svg width="20.021336" height="17.178589" viewBox="0 0 20.0213 17.1786" fill="none" xmlns="http://www.w3.org/2000/svg" xmlns:xlink="http://www.w3.org/1999/xlink">
	<desc>
			Created with Pixso.
	</desc>
	<defs/>
	<path id="Vector" d="M8.4 0.41C8.67 0.68 8.82 1.05 8.82 1.42C8.82 1.8 8.67 2.17 8.4 2.44L3.69 7.15L18.59 7.16C18.97 7.16 19.33 7.31 19.6 7.57C19.87 7.84 20.02 8.21 20.02 8.59C20.02 8.96 19.87 9.33 19.6 9.6C19.33 9.86 18.97 10.02 18.59 10.02L3.69 10.01L8.4 14.71C8.54 14.85 8.65 15 8.72 15.18C8.8 15.35 8.84 15.54 8.84 15.73C8.84 15.92 8.8 16.11 8.73 16.29C8.66 16.46 8.55 16.62 8.42 16.75C8.29 16.89 8.13 17 7.95 17.07C7.77 17.14 7.59 17.18 7.4 17.17C7.21 17.17 7.02 17.13 6.84 17.06C6.67 16.98 6.51 16.87 6.38 16.74L1.25 11.61C0.85 11.21 0.54 10.74 0.32 10.22C0.11 9.7 0 9.14 0 8.58C0 8.01 0.11 7.45 0.32 6.93C0.54 6.41 0.85 5.94 1.25 5.54L6.38 0.41C6.65 0.15 7.01 0 7.39 0C7.77 0 8.13 0.15 8.4 0.41Z" fill="#3D3D3F" fill-opacity="1.000000" fill-rule="nonzero"/>
</svg>
