<svg width="48.000000" height="48.000000" viewBox="0 0 48 48" fill="none" xmlns="http://www.w3.org/2000/svg" xmlns:xlink="http://www.w3.org/1999/xlink">
	<desc>
			Created with Pixso.
	</desc>
	<defs/>
	<circle id="Эллипс 1" cx="24.000000" cy="24.000000" r="24.000000" fill="#FFFFFF" fill-opacity="1.000000"/>
	<path id="Vector" d="M18 32.56L18 15.9C17.99 15.74 18.04 15.58 18.12 15.44C18.21 15.3 18.33 15.18 18.48 15.11C18.62 15.03 18.79 14.99 18.96 15C19.12 15 19.29 15.05 19.43 15.14L32.74 23.47C32.88 23.55 32.99 23.66 33.06 23.8C33.14 23.93 33.17 24.08 33.17 24.24C33.17 24.39 33.14 24.54 33.06 24.67C32.99 24.81 32.88 24.92 32.74 25L19.43 33.33C19.29 33.42 19.12 33.47 18.96 33.47C18.79 33.48 18.62 33.44 18.48 33.36C18.33 33.28 18.21 33.17 18.12 33.03C18.04 32.89 17.99 32.73 18 32.56Z" fill="#FD695A" fill-opacity="1.000000" fill-rule="nonzero"/>
</svg>
